<svg version="1.1" id="Layer_1" xmlns="http://www.w3.org/2000/svg" xmlns:xlink="http://www.w3.org/1999/xlink" x="0px" y="0px"
	 width="100%" viewBox="0 0 179 178" enable-background="new 0 0 179 178" xml:space="preserve">
<path fill="#030303" opacity="1.000000" stroke="none" 
	d="
M98.000000,0.999999 
	C125.316139,1.000000 152.632278,1.000000 179.974213,1.000000 
	C179.974213,60.278797 179.974213,119.557610 179.974213,178.918213 
	C120.425499,178.918213 60.850842,178.918213 1.138093,178.918213 
	C1.138093,119.666870 1.138093,60.333488 1.138093,1.000000 
	C27.095238,1.000000 53.078960,1.000000 79.715370,1.335171 
	C81.887001,1.755053 83.405937,1.839765 85.385567,1.948411 
	C88.924561,1.952677 92.002869,1.933010 95.412384,1.933743 
	C96.495720,1.636095 97.247864,1.318047 98.000000,0.999999 
M91.882286,128.437637 
	C91.786003,128.896698 91.689713,129.355759 91.114624,130.376480 
	C90.398857,131.755646 89.683090,133.134796 88.967323,134.513962 
	C89.624161,135.114243 90.280998,135.714523 90.937836,136.314819 
	C91.400993,135.143890 91.864151,133.972977 92.913086,132.391083 
	C93.697769,130.959320 94.482460,129.527557 95.748703,127.738838 
	C95.862076,127.160553 95.975456,126.582268 96.620064,125.440605 
	C99.914848,116.109970 97.573601,107.880905 90.829094,101.189522 
	C85.901993,96.301224 80.262367,92.080772 74.673988,87.920433 
	C64.812843,80.579170 63.485859,75.890221 68.497696,64.826355 
	C66.126839,65.957474 63.487247,67.179123 62.184845,69.244141 
	C56.592720,78.110687 55.362789,86.871643 63.742332,94.931007 
	C69.587799,100.553123 76.289505,105.289879 82.651695,110.368286 
	C87.741539,114.431099 91.880692,119.034042 91.996666,126.650436 
	C92.022888,127.101204 92.049110,127.551964 91.882286,128.437637 
M87.277977,59.030819 
	C84.695374,61.014935 82.112770,62.999050 79.684891,64.864296 
	C81.758507,67.051338 83.875961,69.234756 85.934990,71.471939 
	C87.605003,73.286438 89.204826,75.165535 90.994675,77.874664 
	C91.073799,79.366447 90.929428,80.916084 91.296272,82.333397 
	C91.647675,83.691010 92.529938,84.911224 93.178879,86.191833 
	C93.715057,84.860443 94.640678,83.553589 94.726318,82.193825 
	C95.467270,70.429115 93.015945,58.377945 98.708000,46.964371 
	C104.848099,41.451118 102.966499,34.010521 103.202919,27.142706 
	C103.208115,26.991880 99.492264,26.397484 97.604401,26.663734 
	C96.920204,26.760231 96.506363,28.773727 95.526428,30.493475 
	C94.292473,36.502403 92.544708,42.465584 92.004204,48.536255 
	C91.640457,52.621601 91.108231,56.174847 87.277977,59.030819 
M127.806847,120.053391 
	C130.091263,120.053391 132.375687,120.053391 135.254333,120.053391 
	C135.254333,101.862129 135.254333,84.054352 135.254333,66.123154 
	C131.871368,66.123154 128.244049,66.123154 125.464775,66.123154 
	C125.926064,67.879860 126.792839,69.683044 126.811546,71.494987 
	C126.933517,83.304970 127.019440,95.119736 126.787903,106.926491 
	C126.708939,110.953186 125.641548,114.956688 125.169853,118.987640 
	C125.136520,119.272469 126.296646,119.696960 127.806847,120.053391 
M42.194759,74.244354 
	C40.617432,71.553078 39.040104,68.861801 37.355820,65.988037 
	C34.891201,65.988037 32.117115,65.988037 28.980036,65.988037 
	C36.237743,79.715431 43.346382,93.160873 50.713413,107.095055 
	C52.215710,102.451653 53.742847,97.731476 54.698643,94.777229 
	C50.149090,87.277527 46.380070,81.064507 42.194759,74.244354 
M147.897797,120.116753 
	C151.799683,120.116753 155.701569,120.116753 159.818954,120.116753 
	C159.818954,115.439377 159.818954,111.408928 159.818954,107.069122 
	C147.171631,119.907051 147.171631,119.907051 138.668701,118.078064 
	C141.437820,118.742035 144.206955,119.406006 147.897797,120.116753 
z"/>
<path fill="#181818" opacity="1.000000" stroke="none" 
	d="
M95.081177,1.913342 
	C92.002869,1.933010 88.924561,1.952677 85.411537,1.718187 
	C84.976822,1.464029 85.000000,1.000000 85.000000,1.000000 
	C88.030594,1.000000 91.061188,1.000000 94.560349,1.228855 
	C95.028908,1.457709 95.081177,1.913342 95.081177,1.913342 
z"/>
<path fill="#363636" opacity="1.000000" stroke="none" 
	d="
M84.583336,1.000000 
	C85.000000,1.000000 84.976822,1.464029 84.950851,1.694253 
	C83.405937,1.839765 81.887001,1.755053 80.184029,1.335171 
	C81.388893,1.000000 82.777779,1.000000 84.583336,1.000000 
z"/>
<path fill="#353535" opacity="1.000000" stroke="none" 
	d="
M95.412384,1.933743 
	C95.081177,1.913342 95.028908,1.457709 95.014450,1.228855 
	C95.750000,1.000000 96.500000,1.000000 97.625000,0.999999 
	C97.247864,1.318047 96.495720,1.636095 95.412384,1.933743 
z"/>
<path fill="#F0F1F2" opacity="1.000000" stroke="none" 
	d="
M92.197845,125.993553 
	C91.880692,119.034042 87.741539,114.431099 82.651695,110.368286 
	C76.289505,105.289879 69.587799,100.553123 63.742332,94.931007 
	C55.362789,86.871643 56.592720,78.110687 62.184845,69.244141 
	C63.487247,67.179123 66.126839,65.957474 68.497696,64.826355 
	C63.485859,75.890221 64.812843,80.579170 74.673988,87.920433 
	C80.262367,92.080772 85.901993,96.301224 90.829094,101.189522 
	C97.573601,107.880905 99.914848,116.109970 95.963875,125.721382 
	C94.271072,125.999290 93.234459,125.996422 92.197845,125.993553 
z"/>
<path fill="#F4F5F5" opacity="1.000000" stroke="none" 
	d="
M127.354340,120.054947 
	C126.296646,119.696960 125.136520,119.272469 125.169853,118.987640 
	C125.641548,114.956688 126.708939,110.953186 126.787903,106.926491 
	C127.019440,95.119736 126.933517,83.304970 126.811546,71.494987 
	C126.792839,69.683044 125.926064,67.879860 125.464775,66.123154 
	C128.244049,66.123154 131.871368,66.123154 135.254333,66.123154 
	C135.254333,84.054352 135.254333,101.862129 135.254333,120.053391 
	C132.375687,120.053391 130.091263,120.053391 127.354340,120.054947 
z"/>
<path fill="#ECECEE" opacity="1.000000" stroke="none" 
	d="
M42.402908,74.547920 
	C46.380070,81.064507 50.149090,87.277527 54.698643,94.777229 
	C53.742847,97.731476 52.215710,102.451653 50.713413,107.095055 
	C43.346382,93.160873 36.237743,79.715431 28.980036,65.988037 
	C32.117115,65.988037 34.891201,65.988037 37.355820,65.988037 
	C39.040104,68.861801 40.617432,71.553078 42.402908,74.547920 
z"/>
<path fill="#E5E5E5" opacity="1.000000" stroke="none" 
	d="
M97.992500,47.001930 
	C93.015945,58.377945 95.467270,70.429115 94.726318,82.193825 
	C94.640678,83.553589 93.715057,84.860443 93.178879,86.191833 
	C92.529938,84.911224 91.647675,83.691010 91.296272,82.333397 
	C90.929428,80.916084 91.073799,79.366447 90.995499,76.982170 
	C91.009209,71.337532 90.825981,66.573563 91.111336,61.837833 
	C91.272705,59.159771 90.006790,58.880100 88.001701,58.999535 
	C91.108231,56.174847 91.640457,52.621601 92.004204,48.536255 
	C92.544708,42.465584 94.292473,36.502403 96.133408,30.346542 
	C96.215126,34.806980 95.689850,39.414352 95.105133,44.388992 
	C95.085075,45.496746 95.124474,46.237240 95.086037,47.276367 
	C95.180847,47.940945 95.353477,48.306881 95.526108,48.672813 
	C96.020744,48.117405 96.515388,47.561996 97.005089,47.003147 
	C97.000153,46.999710 97.005585,47.009335 97.252258,47.000473 
	C97.498932,46.991615 97.992500,47.001930 97.992500,47.001930 
z"/>
<path fill="#1B1B1C" opacity="1.000000" stroke="none" 
	d="
M95.164574,44.021725 
	C95.689850,39.414352 96.215126,34.806980 96.354782,30.056061 
	C96.506363,28.773727 96.920204,26.760231 97.604401,26.663734 
	C99.492264,26.397484 103.208115,26.991880 103.202919,27.142706 
	C102.966499,34.010521 104.848099,41.451118 98.350250,46.983150 
	C97.992500,47.001930 97.498932,46.991615 97.246475,46.657963 
	C96.384201,45.556782 95.774384,44.789253 95.164574,44.021725 
z"/>
<path fill="#141414" opacity="1.000000" stroke="none" 
	d="
M87.639839,59.015175 
	C90.006790,58.880100 91.272705,59.159771 91.111336,61.837833 
	C90.825981,66.573563 91.009209,71.337532 90.916046,76.552826 
	C89.204826,75.165535 87.605003,73.286438 85.934990,71.471939 
	C83.875961,69.234756 81.758507,67.051338 79.684891,64.864296 
	C82.112770,62.999050 84.695374,61.014935 87.639839,59.015175 
z"/>
<path fill="#DBDBDB" opacity="1.000000" stroke="none" 
	d="
M147.436951,120.093369 
	C144.206955,119.406006 141.437820,118.742035 138.668701,118.078064 
	C147.171631,119.907051 147.171631,119.907051 159.818954,107.069122 
	C159.818954,111.408928 159.818954,115.439377 159.818954,120.116753 
	C155.701569,120.116753 151.799683,120.116753 147.436951,120.093369 
z"/>
<path fill="#EAEBEC" opacity="1.000000" stroke="none" 
	d="
M92.327316,132.802063 
	C91.864151,133.972977 91.400993,135.143890 90.937836,136.314819 
	C90.280998,135.714523 89.624161,135.114243 88.967323,134.513962 
	C89.683090,133.134796 90.398857,131.755646 91.531471,130.843994 
	C92.074654,131.808365 92.200981,132.305206 92.327316,132.802063 
z"/>
<path fill="#EAEBEC" opacity="1.000000" stroke="none" 
	d="
M92.097260,126.321991 
	C93.234459,125.996422 94.271072,125.999290 95.698257,126.003067 
	C95.975456,126.582268 95.862076,127.160553 95.109634,127.888992 
	C93.672157,128.027008 92.873741,128.014877 92.075325,128.002731 
	C92.049110,127.551964 92.022888,127.101204 92.097260,126.321991 
z"/>
<path fill="#F0F1F2" opacity="1.000000" stroke="none" 
	d="
M91.978806,128.220184 
	C92.873741,128.014877 93.672157,128.027008 94.868866,128.067474 
	C94.482460,129.527557 93.697769,130.959320 92.620201,132.596573 
	C92.200981,132.305206 92.074654,131.808365 91.770874,130.563171 
	C91.689713,129.355759 91.786003,128.896698 91.978806,128.220184 
z"/>
<path fill="#030303" opacity="1.000000" stroke="none" 
	d="
M95.105133,44.388992 
	C95.774384,44.789253 96.384201,45.556782 96.999802,46.666824 
	C97.005585,47.009335 97.000153,46.999710 96.698013,46.978458 
	C95.985207,46.964046 95.574539,46.970890 95.163864,46.977730 
	C95.124474,46.237240 95.085075,45.496746 95.105133,44.388992 
z"/>
<path fill="#1B1B1C" opacity="1.000000" stroke="none" 
	d="
M95.086037,47.276367 
	C95.574539,46.970890 95.985207,46.964046 96.702957,46.981895 
	C96.515388,47.561996 96.020744,48.117405 95.526108,48.672813 
	C95.353477,48.306881 95.180847,47.940945 95.086037,47.276367 
z"/>
</svg>