<svg width="50" height="49" viewBox="0 0 50 49" fill="none" xmlns="http://www.w3.org/2000/svg">
<path d="M25 24.5C28.4518 24.5 31.25 21.7577 31.25 18.375C31.25 14.9923 28.4518 12.25 25 12.25C21.5482 12.25 18.75 14.9923 18.75 18.375C18.75 21.7577 21.5482 24.5 25 24.5Z" stroke="white" stroke-width="2"/>
<path d="M37.4356 40.8333C37.1042 34.9299 35.2598 30.625 24.9998 30.625C14.74 30.625 12.8956 34.9299 12.5641 40.8333" stroke="white" stroke-width="2" stroke-linecap="round"/>
<path d="M14.5833 6.81473C17.6476 5.07757 21.2054 4.08334 25 4.08334C36.5058 4.08334 45.8333 13.2242 45.8333 24.5C45.8333 35.7757 36.5058 44.9167 25 44.9167C13.4941 44.9167 4.16666 35.7757 4.16666 24.5C4.16666 20.7813 5.18118 17.2947 6.95378 14.2917" stroke="white" stroke-width="2" stroke-linecap="round"/>
</svg>
