<?xml version="1.0" encoding="utf-8"?>
<svg xmlns="http://www.w3.org/2000/svg" style="margin: auto; background: none; display: block; shape-rendering: auto;" width="280" height="250" preserveAspectRatio="xMidYMid">
<style type="text/css">
  text {
    text-anchor: middle; font-size: 50px; opacity: 0;
  }
</style>
<g style="transform-origin:140px 125px;transform:scale(1)">
<g transform="translate(140,125)">
  <g transform="translate(0,0)"><g class="path" style="transform: rotate(0deg); transform-origin: -66.52px -3.08573px; animation: 12s linear -4.32s infinite normal forwards running clock-dae1a85a-fbef-431e-a606-f64fa9bdc635;"><path d="M51.56 0L23.97 0L23.97 0Q20.92-6.67 18.07-12.07L18.07-12.07L18.07-12.07Q15.21-17.48 12.54-21.29L12.54-21.29L12.54-21.29Q9.86-25.10 7.35-27.16L7.35-27.16L7.35-27.16Q4.83-29.22 2.44-29.22L2.44-29.22L2.44-31.52L45.78-31.52L45.78-29.22L45.78-29.22Q44.51-29.22 43.40-29.08L43.40-29.08L43.40-29.08Q42.29-28.93 41.47-28.56L41.47-28.56L41.47-28.56Q40.65-28.20 40.19-27.56L40.19-27.56L40.19-27.56Q39.72-26.93 39.72-25.95L39.72-25.95L39.72-25.95Q39.72-25.37 40.10-24.12L40.10-24.12L40.10-24.12Q40.48-22.88 41.15-21.17L41.15-21.17L41.15-21.17Q41.82-19.46 42.71-17.40L42.71-17.40L42.71-17.40Q43.60-15.33 44.64-13.12L44.64-13.12L44.64-13.12Q45.68-10.91 46.81-8.65L46.81-8.65L46.81-8.65Q47.95-6.40 49.07-4.32L49.07-4.32L49.07-4.32Q49.54-5.03 50.20-6.23L50.20-6.23L50.20-6.23Q50.85-7.42 51.61-8.92L51.61-8.92L51.61-8.92Q52.37-10.42 53.19-12.12L53.19-12.12L53.19-12.12Q54.00-13.82 54.77-15.54L54.77-15.54L54.77-15.54Q55.54-17.26 56.24-18.90L56.24-18.90L56.24-18.90Q56.93-20.53 57.46-21.91L57.46-21.91L57.46-21.91Q57.98-23.29 58.29-24.32L58.29-24.32L58.29-24.32Q58.59-25.34 58.59-25.83L58.59-25.83L58.59-25.83Q58.59-26.68 58.29-27.32L58.29-27.32L58.29-27.32Q57.98-27.95 57.28-28.38L57.28-28.38L57.28-28.38Q56.57-28.81 55.42-29.02L55.42-29.02L55.42-29.02Q54.27-29.22 52.56-29.22L52.56-29.22L52.56-31.52L74.58-31.52L74.58-29.22L74.58-29.22Q72.22-29.22 70.15-28.41L70.15-28.41L70.15-28.41Q68.09-27.59 66.21-25.95L66.21-25.95L66.21-25.95Q64.33-24.32 62.57-21.86L62.57-21.86L62.57-21.86Q60.82-19.41 59.05-16.16L59.05-16.16L59.05-16.16Q57.28-12.92 55.43-8.87L55.43-8.87L55.43-8.87Q53.59-4.83 51.56 0L51.56 0" fill="#ffffff" stroke="none" stroke-width="none" transform="translate(-105.02999877929688,12.674266357421875)" style="fill: rgb(255, 255, 255);"></path></g><g class="path" style="transform: rotate(0deg); transform-origin: 6.81px -3.07573px; animation: 12s linear -2.16s infinite normal forwards running clock-dae1a85a-fbef-431e-a606-f64fa9bdc635;"><path d="M83.30 1.39L83.30 1.39L83.30 1.39Q83.03 0.88 82.79-0.04L82.79-0.04L82.79-0.04Q82.54-0.95 82.34-2.08L82.34-2.08L82.34-2.08Q82.13-3.20 81.95-4.41L81.95-4.41L81.95-4.41Q81.76-5.62 81.64-6.75L81.64-6.75L81.64-6.75Q81.52-7.89 81.46-8.83L81.46-8.83L81.46-8.83Q81.40-9.77 81.40-10.33L81.40-10.33L83.89-10.33L83.89-10.33Q84.69-8.69 86.01-7.42L86.01-7.42L86.01-7.42Q87.33-6.15 89.01-5.20L89.01-5.20L89.01-5.20Q90.70-4.25 92.68-3.59L92.68-3.59L92.68-3.59Q94.65-2.93 96.79-2.53L96.79-2.53L96.79-2.53Q98.93-2.12 101.14-1.94L101.14-1.94L101.14-1.94Q103.34-1.76 105.49-1.76L105.49-1.76L105.49-1.76Q109.01-1.76 111.35-2.06L111.35-2.06L111.35-2.06Q113.70-2.37 115.11-2.89L115.11-2.89L115.11-2.89Q116.53-3.42 117.11-4.13L117.11-4.13L117.11-4.13Q117.70-4.83 117.70-5.66L117.70-5.66L117.70-5.66Q117.70-6.86 116.67-7.60L116.67-7.60L116.67-7.60Q115.65-8.35 113.88-8.79L113.88-8.79L113.88-8.79Q112.11-9.23 109.75-9.47L109.75-9.47L109.75-9.47Q107.40-9.72 104.75-9.91L104.75-9.91L104.75-9.91Q102.10-10.11 99.32-10.34L99.32-10.34L99.32-10.34Q96.53-10.57 93.88-11.02L93.88-11.02L93.88-11.02Q91.24-11.47 88.88-12.22L88.88-12.22L88.88-12.22Q86.52-12.96 84.75-14.16L84.75-14.16L84.75-14.16Q82.98-15.36 81.96-17.10L81.96-17.10L81.96-17.10Q80.93-18.85 80.93-21.31L80.93-21.31L80.93-21.31Q80.93-23.56 82.01-25.28L82.01-25.28L82.01-25.28Q83.08-27.00 84.99-28.30L84.99-28.30L84.99-28.30Q86.89-29.59 89.53-30.47L89.53-30.47L89.53-30.47Q92.16-31.35 95.28-31.88L95.28-31.88L95.28-31.88Q98.39-32.42 101.87-32.65L101.87-32.65L101.87-32.65Q105.35-32.89 108.96-32.89L108.96-32.89L108.96-32.89Q111.84-32.89 114.60-32.71L114.60-32.71L114.60-32.71Q117.36-32.54 119.93-32.35L119.93-32.35L119.93-32.35Q122.51-32.15 124.87-31.98L124.87-31.98L124.87-31.98Q127.22-31.81 129.32-31.81L129.32-31.81L129.32-31.81Q130.64-31.81 131.63-31.86L131.63-31.86L131.63-31.86Q132.62-31.91 133.54-32.03L133.54-32.03L133.54-32.03Q134.47-32.15 135.42-32.36L135.42-32.36L135.42-32.36Q136.38-32.57 137.62-32.89L137.62-32.89L137.62-32.89Q137.89-32.35 138.12-31.52L138.12-31.52L138.12-31.52Q138.35-30.69 138.56-29.69L138.56-29.69L138.56-29.69Q138.77-28.69 138.94-27.61L138.94-27.61L138.94-27.61Q139.11-26.54 139.23-25.54L139.23-25.54L139.23-25.54Q139.36-24.54 139.42-23.67L139.42-23.67L139.42-23.67Q139.48-22.80 139.48-22.24L139.48-22.24L136.72-22.24L136.72-22.24Q136.38-23.19 135.39-24.15L135.39-24.15L135.39-24.15Q134.40-25.10 132.86-25.98L132.86-25.98L132.86-25.98Q131.32-26.86 129.32-27.61L129.32-27.61L129.32-27.61Q127.32-28.37 124.95-28.93L124.95-28.93L124.95-28.93Q122.58-29.49 119.92-29.81L119.92-29.81L119.92-29.81Q117.26-30.13 114.43-30.13L114.43-30.13L114.43-30.13Q112.82-30.13 111.58-29.83L111.58-29.83L111.58-29.83Q110.35-29.54 109.50-29.06L109.50-29.06L109.50-29.06Q108.64-28.59 108.20-27.97L108.20-27.97L108.20-27.97Q107.76-27.34 107.76-26.68L107.76-26.68L107.76-26.68Q107.76-25.24 108.74-24.33L108.74-24.33L108.74-24.33Q109.72-23.41 111.40-22.86L111.40-22.86L111.40-22.86Q113.09-22.31 115.32-22.02L115.32-22.02L115.32-22.02Q117.55-21.73 120.08-21.51L120.08-21.51L120.08-21.51Q122.61-21.29 125.26-21.04L125.26-21.04L125.26-21.04Q127.91-20.80 130.43-20.35L130.43-20.35L130.43-20.35Q132.96-19.90 135.19-19.14L135.19-19.14L135.19-19.14Q137.43-18.38 139.11-17.14L139.11-17.14L139.11-17.14Q140.80-15.89 141.77-14.05L141.77-14.05L141.77-14.05Q142.75-12.21 142.75-9.59L142.75-9.59L142.75-9.59Q142.75-7.20 141.63-5.46L141.63-5.46L141.63-5.46Q140.50-3.71 138.51-2.49L138.51-2.49L138.51-2.49Q136.52-1.27 133.81-0.51L133.81-0.51L133.81-0.51Q131.10 0.24 127.95 0.67L127.95 0.67L127.95 0.67Q124.80 1.10 121.34 1.25L121.34 1.25L121.34 1.25Q117.87 1.39 114.36 1.39L114.36 1.39L114.36 1.39Q111.23 1.39 108.47 1.22L108.47 1.22L108.47 1.22Q105.71 1.05 103.00 0.85L103.00 0.85L103.00 0.85Q100.29 0.66 97.50 0.49L97.50 0.49L97.50 0.49Q94.70 0.32 91.53 0.32L91.53 0.32L91.53 0.32Q90.23 0.32 89.25 0.37L89.25 0.37L89.25 0.37Q88.26 0.42 87.34 0.54L87.34 0.54L87.34 0.54Q86.43 0.66 85.47 0.87L85.47 0.87L85.47 0.87Q84.52 1.07 83.30 1.39" fill="#ffffff" stroke="none" stroke-width="none" transform="translate(-105.02999877929688,12.674266357421875)" style="fill: rgb(255, 255, 255);"></path></g><g class="path" style="transform: rotate(0deg); transform-origin: 75.075px -3.08573px; animation: 12s linear 0s infinite normal forwards running clock-dae1a85a-fbef-431e-a606-f64fa9bdc635;"><path d="M147.71 0L147.71-2.29L147.71-2.29Q151.37-2.42 153.78-3.15L153.78-3.15L153.78-3.15Q156.20-3.88 157.64-5.49L157.64-5.49L157.64-5.49Q159.08-7.10 159.68-9.73L159.68-9.73L159.68-9.73Q160.28-12.35 160.28-16.31L160.28-16.31L160.28-16.31Q160.28-18.97 159.97-20.97L159.97-20.97L159.97-20.97Q159.67-22.97 159.02-24.40L159.02-24.40L159.02-24.40Q158.37-25.83 157.36-26.77L157.36-26.77L157.36-26.77Q156.35-27.71 154.96-28.25L154.96-28.25L154.96-28.25Q153.56-28.78 151.76-29.00L151.76-29.00L151.76-29.00Q149.95-29.22 147.71-29.22L147.71-29.22L147.71-31.52L198.22-31.52L198.22-29.22L198.22-29.22Q194.85-29.22 192.47-28.71L192.47-28.71L192.47-28.71Q190.09-28.20 188.57-26.77L188.57-26.77L188.57-26.77Q187.06-25.34 186.36-22.83L186.36-22.83L186.36-22.83Q185.67-20.31 185.67-16.31L185.67-16.31L185.67-2.42L185.67-2.42Q188.87-2.42 191.87-3.08L191.87-3.08L191.87-3.08Q194.87-3.74 197.52-4.88L197.52-4.88L197.52-4.88Q200.17-6.03 202.39-7.56L202.39-7.56L202.39-7.56Q204.61-9.08 206.24-10.83L206.24-10.83L206.24-10.83Q207.86-12.57 208.83-14.44L208.83-14.44L208.83-14.44Q209.79-16.31 209.94-18.12L209.94-18.12L212.50-18.12L212.50-18.12Q212.50-17.14 212.46-15.72L212.46-15.72L212.46-15.72Q212.43-14.31 212.37-12.65L212.37-12.65L212.37-12.65Q212.30-10.99 212.21-9.20L212.21-9.20L212.21-9.20Q212.11-7.42 211.98-5.74L211.98-5.74L211.98-5.74Q211.84-4.05 211.66-2.56L211.66-2.56L211.66-2.56Q211.47-1.07 211.25 0L211.25 0L147.71 0" fill="#ffffff" stroke="none" stroke-width="none" transform="translate(-105.02999877929688,12.674266357421875)" style="fill: rgb(255, 255, 255);"></path></g></g>
</g>
</g>
<style id="clock-dae1a85a-fbef-431e-a606-f64fa9bdc635" data-anikit="">@keyframes clock-dae1a85a-fbef-431e-a606-f64fa9bdc635 {
0% {
  animation-timing-function: cubic-bezier(0,0.7000000000000001,0.29999999999999993,1);
  transform: rotate(0deg);
}
8.33333% {
  animation-timing-function: cubic-bezier(0,0.7000000000000001,0.29999999999999993,1);
  transform: rotate(30deg);
}
16.66667% {
  animation-timing-function: cubic-bezier(0,0.7000000000000001,0.29999999999999993,1);
  transform: rotate(60deg);
}
25% {
  animation-timing-function: cubic-bezier(0,0.7000000000000001,0.29999999999999993,1);
  transform: rotate(90deg);
}
33.33333% {
  animation-timing-function: cubic-bezier(0,0.7000000000000001,0.29999999999999993,1);
  transform: rotate(120deg);
}
41.66667% {
  animation-timing-function: cubic-bezier(0,0.7000000000000001,0.29999999999999993,1);
  transform: rotate(150deg);
}
50% {
  animation-timing-function: cubic-bezier(0,0.7000000000000001,0.29999999999999993,1);
  transform: rotate(180deg);
}
58.33333% {
  animation-timing-function: cubic-bezier(0,0.7000000000000001,0.29999999999999993,1);
  transform: rotate(210deg);
}
66.66667% {
  animation-timing-function: cubic-bezier(0,0.7000000000000001,0.29999999999999993,1);
  transform: rotate(240deg);
}
75% {
  animation-timing-function: cubic-bezier(0,0.7000000000000001,0.29999999999999993,1);
  transform: rotate(270deg);
}
83.33333% {
  animation-timing-function: cubic-bezier(0,0.7000000000000001,0.29999999999999993,1);
  transform: rotate(300deg);
}
91.66667% {
  animation-timing-function: cubic-bezier(0,0.7000000000000001,0.29999999999999993,1);
  transform: rotate(330deg);
}
100% {
  animation-timing-function: cubic-bezier(0,0.7000000000000001,0.29999999999999993,1);
  transform: rotate(360deg);
}
}</style></svg>